<?xml version="1.0" encoding="utf-8"?>
<!-- Generator: Adobe Illustrator 16.0.0, SVG Export Plug-In . SVG Version: 6.00 Build 0)  -->
<!DOCTYPE svg PUBLIC "-//W3C//DTD SVG 1.1//EN" "http://www.w3.org/Graphics/SVG/1.1/DTD/svg11.dtd">
<svg version="1.1" id="圖層_1" xmlns="http://www.w3.org/2000/svg" xmlns:xlink="http://www.w3.org/1999/xlink" x="0px" y="0px"
	 width="40px" height="78.5px" viewBox="0 0 40 78.5" enable-background="new 0 0 40 78.5" xml:space="preserve">
<path fill="#E21813" d="M40,69.996c0,4.696-3.808,8.504-8.504,8.504H8.504C3.808,78.5,0,74.692,0,69.996V8.504
	C0,3.807,3.808,0,8.504,0h22.992C36.192,0,40,3.807,40,8.504V69.996z"/>
<g>
	<path fill="#FFFFFF" d="M17.219,16.677h0.153c0.458,0.152,0.813,0.483,1.067,0.992v0.229l-0.305,0.496v0.152
		c2.771,1.5,5.949,2.873,9.533,4.119c0.636,0.229,2.274,0.571,4.919,1.029c0.991,0.255,2.16,0.903,3.508,1.944
		c0.28,0.484,0.444,0.648,0.496,0.496v0.076c-0.686,0.152-1.995,0.204-3.927,0.152c-2.925-0.229-5.759-1.487-8.504-3.775
		c-1.83-1.245-3.789-2.415-5.872-3.508l-0.229-0.152h-0.152c-1.195,2.492-3.103,5.44-5.721,8.847
		c-0.864,1.398-2.706,2.669-5.528,3.813c-0.407,0.203-1.195,0.279-2.364,0.229l-0.152-0.076h0.152
		c4.602-1.652,8.897-6.292,12.889-13.918l0.037-0.152v-0.305l-0.113-0.229h-0.153l-0.151,0.152h-0.153l-0.076-0.077v-0.076
		L17.219,16.677z M7.839,11.415h0.076c0.406,0.102,0.712,0.572,0.915,1.411v1.03c-0.102,1.245-0.623,2.682-1.563,4.309l-0.153,0.077
		H6.505c-0.331-0.178-0.598-0.598-0.801-1.258v-0.648c-0.204-0.305,0.482-1.423,2.059-3.356l0.152-0.381v-0.954L7.839,11.415z
		 M13.673,18.698h0.153v0.077c-0.356,0.204-1.005,1.373-1.945,3.508c-0.203,0.305-0.406,0.483-0.609,0.534h-0.572
		c-0.991-0.61-1.398-0.915-1.22-0.915l-0.077-0.153v-0.571c-0.102-0.203,0.28-0.725,1.145-1.563l-0.076,0.076v0.114
		c-0.052,0.915,0.267,1.093,0.952,0.534L13.673,18.698z M16.267,4.017h0.457c1.348,0.254,2.06,0.903,2.136,1.944l0.153,0.61
		c1.144-0.94,2.465-1.614,3.965-2.021h1.029c0.56,0.051,0.916,0.28,1.068,0.686v0.191c-0.204,0.56-1.233,0.789-3.089,0.686
		c-0.331-0.05-1.271,0.204-2.822,0.763c-0.254-0.153-0.33,0.166-0.229,0.953c0.051,0.204-0.09,0.979-0.419,2.327v0.038l7.664-1.983
		l1.717-0.077c0.991,0.255,1.88,0.992,2.668,2.212l0.077,0.686c-0.306,0.991-1.716,1.563-4.232,1.716l-0.763,0.077h-0.305
		c1.041-0.61,1.969-1.5,2.783-2.669V9.699c-0.204-0.458-0.407-0.635-0.61-0.534h-1.64c-2.721,0.457-6.648,1.805-11.783,4.042
		l-0.19,0.076h-0.534l-1.183-0.381l-0.839-0.458c0.153,0.152,1.996-0.394,5.529-1.64l0.229-0.153
		c-0.305-1.194-0.408-2.682-0.305-4.461l-0.077-0.077l0.077-0.228V5.732c0.05-0.788-0.205-1.308-0.763-1.563L16.267,4.017z
		 M19.927,13.283h0.382c0.839,0.051,1.283,0.369,1.335,0.953c-1.45,0.941-3.419,1.666-5.912,2.174l-0.075-0.076L15.58,16.41h-0.115
		l-1.372-0.458l-0.076-0.076V15.8l0.076-0.076c1.348,0.051,3.166-0.725,5.453-2.326L19.927,13.283z M14.017,26.439h0.076
		c0.406,0.102,0.902,0.572,1.487,1.411l0.151,0.458l-0.151,5.377c0.05,0.534,0.013,0.851-0.115,0.954v0.076H15.16
		c-0.711-0.483-1.043-1.5-0.991-3.05c0.152-1.093,0.203-2.503,0.152-4.232L14.017,26.439z M20.003,22.931h0.878
		c1.093,0.255,1.969,0.979,2.63,2.173c0.28,0.356,0.369,1.869,0.268,4.538c0,1.093-0.19,2.885-0.572,5.377
		c0.052,0.534-0.394,1.449-1.334,2.746l-0.153,0.076h-0.151c-0.204,0.203-0.7-0.216-1.487-1.258l-0.687-0.457l-2.021,0.076
		l-1.334-0.61l-0.382-0.343v-0.153h0.152l0.306,0.153h1.182l1.792-0.534h0.229c0.458-0.051,0.902,0.267,1.334,0.954h0.076
		c0.711,0.051,1.018-3.19,0.916-9.724v-0.687c0-0.534-0.229-0.877-0.688-1.03h-0.609c-0.991,0.152-2.403,0.674-4.232,1.564h-0.153
		C17.004,24.342,18.351,23.388,20.003,22.931z M18.439,26.82h0.496c0.152-0.051,0.482,0.178,0.991,0.686v0.496
		c-0.788,0.559-1.589,1.284-2.401,2.173v0.153c-0.153,0.254,0.393,0.471,1.639,0.648c0.56,0.102,0.814,0.305,0.763,0.61v0.076
		c-0.151,0.584-1.194,1.258-3.126,2.021v-0.076l1.105-1.182v-0.534c-0.636-0.661-0.902-1.029-0.801-1.106v-0.534
		c0-0.406,0.368-1.003,1.105-1.792v-0.229h-0.152l-1.335,0.458h-0.076v-0.077c0.153-0.355,0.699-0.928,1.641-1.716L18.439,26.82z
		 M24.313,15.952h0.305c1.042,0.204,1.881,0.7,2.518,1.487l0.151,0.381v0.077c-0.356,0.381-0.623,0.571-0.801,0.571h-0.229
		l-3.202-1.182l-2.632-0.152l-0.076,0.076l-0.267-0.228l3.126-0.801l1.029-0.152L24.313,15.952z"/>
	<path fill="#FFFFFF" d="M17.372,44.297h0.305c0.356,0.102,0.775,0.496,1.259,1.183c0.102,0.585,0.406,0.876,0.915,0.876v0.688
		c-0.102,0.355-0.725,0.571-1.869,0.647l-1.181,1.373c0,0.331-0.623,1.043-1.869,2.135l-0.076,0.153v0.458
		c0.253,0.151,0.571,0.597,0.953,1.334h0.381c0.307-0.153,0.902-0.801,1.792-1.945l1.259-1.181V49.94h0.153v0.077
		c-0.255,0.635-0.902,1.677-1.945,3.126c-0.433,0.204-0.801,0.675-1.105,1.411c0.203,0.457,0.305,1.5,0.305,3.127
		c0.102,0.661-0.102,1.284-0.609,1.868l-0.496,0.306h-0.305l-1.411-0.534l-1.563-0.306h-0.458l-0.838,0.687h-0.42l-0.305-0.381
		v-0.953c0.1-0.611,0.368-0.916,0.8-0.916c0.763-0.151,2.085-1.22,3.967-3.203v-0.496c0.1-0.1-0.129-0.431-0.688-0.99l-0.152-0.077
		h-0.152l-0.877,0.687l-0.076,0.153h-0.305l-0.307-0.535v-0.38c-0.075-0.433,0.433-0.878,1.526-1.335l1.03-1.716l0.229-0.42v-0.076
		l-0.153-0.153h-0.152l-2.25,0.801c-0.433,0.205-0.598,0.382-0.496,0.535l-0.076,0.076v0.075l0.153,0.076v0.496
		c-0.052,0.306-0.229,0.585-0.533,0.84H11.5c-0.204-0.052-0.434-0.331-0.687-0.84h-0.343c-0.56,0.204-1.336,0.7-2.327,1.487
		c-0.432,0.61-0.699,0.891-0.801,0.84l-0.075,0.075H7.038c-0.102,0.102-0.597-0.229-1.487-0.991
		c-0.305-0.127-0.432-0.267-0.381-0.42H5.093v-0.305c0.688,0.102,1.78-0.317,3.28-1.259l1.792-0.762
		c0.687-0.534,0.979-0.902,0.877-1.105v-0.077h0.229l0.305,0.229h0.305c0.84-0.558,1.983-1.13,3.433-1.715
		c0.736,0.102,1.372-0.318,1.905-1.258c-0.025-0.458,0.026-0.636,0.153-0.536c-0.102-0.482-0.19-0.686-0.267-0.609v-0.076
		L17.372,44.297z M14.169,37.891h0.533l1.487,0.419c0.356,0.305,0.483,0.509,0.382,0.61l0.076,0.077v1.334
		c-0.052,0.509-0.127,0.712-0.229,0.611v0.342c-0.052,0.255,0.394,0.382,1.335,0.382c0.609,0.102,0.889,0.279,0.839,0.534v0.152
		c0,0.534-0.623,0.954-1.869,1.258c-0.406-0.102-0.801,0.267-1.182,1.106c-0.305,1.144-0.929,1.894-1.869,2.25
		c-0.151,0.254-0.33,0.381-0.533,0.381v-0.381c0.254-0.255,0.481-0.802,0.687-1.64v-0.458l-0.382-0.305H12.91l-0.458,0.153h-0.418
		l-0.84-0.229v-0.115c1.194-0.204,2.187-0.711,2.975-1.525l0.152-1.487l0.076-0.076v-1.487c-0.203-0.432-0.623-0.47-1.258-0.114
		l-0.152-0.076v-0.382c0.203-0.458,0.482-0.813,0.839-1.068L14.169,37.891z M20.651,56.118h0.687l1.105,0.763
		c0.051,0.151,0.102,0.203,0.153,0.151v0.42c-0.788,1.145-2.072,1.971-3.853,2.479v0.229l1.183,1.105h0.42
		c0.661-0.458,1.69-0.902,3.089-1.334l0.075-0.076h0.345c0.838,0.151,1.258,0.305,1.258,0.456c0.051,0.129,0.101,0.167,0.152,0.115
		v0.381c-0.586,0.941-1.793,1.959-3.622,3.052l-0.763,0.839v0.381c0.152-0.152,0.203,0.089,0.152,0.725
		c0.051,0.788,0.801,1.156,2.249,1.106c0.687,0.102,1.157,0.482,1.411,1.144v0.344c-0.102,0.203-0.521,0.405-1.258,0.609
		l-1.563-0.076c-0.458,0.305-0.611,1.004-0.458,2.097c0.051,0.891-0.521,1.983-1.716,3.28l-1.182,0.152
		c-0.153,0.101-0.535-0.128-1.145-0.687c-0.229-0.255-1.093-0.7-2.593-1.334c0.051-0.104-0.127-0.229-0.533-0.382v-0.229h0.151
		c0.406,0.305,1.106,0.508,2.099,0.611h1.334c0.89,0.101,1.462-0.892,1.716-2.975l0.076-0.077v-0.609
		c-0.255-0.331-0.432-0.484-0.534-0.458l-3.432,0.077c-0.052-0.28-0.114-0.396-0.191-0.344c0.052-0.661,0.293-1.017,0.725-1.068
		c1.094-0.432,2.187-1.296,3.279-2.592v-0.763l-0.151-0.268h-0.305c-1.323,0.586-2.556,1.373-3.699,2.364l-1.717,0.763l-0.687,0.075
		l-0.381-0.075v-0.153l4.042-2.821c0.584-0.254,1.372-0.737,2.364-1.449l0.077-0.152v-0.267c-0.229-0.661-0.776-1.131-1.641-1.411
		V60.16l2.479-2.097l0.572-0.84v-0.343C19.939,56.627,20.017,56.373,20.651,56.118z M15.16,55.736
		c-0.356,0.103-1.029,0.802-2.021,2.098c0.102,0.203,0.278,0.306,0.533,0.306h0.648c0.61,0,0.992-0.306,1.144-0.916v-1.029
		C15.465,55.94,15.363,55.788,15.16,55.736z M19.394,65.804c-0.407,0.152-0.827,0.495-1.259,1.029l0.534,0.229h0.267
		c0.305,0,0.585-0.126,0.84-0.381v-0.572l-0.229-0.305H19.394z M22.901,40.636h0.534l1.411,0.802c0,0.253,0.076,0.381,0.229,0.381
		c0.024,1.093-0.051,2.186-0.229,3.279l0.151,0.153h0.115l1.525-1.183c-0.052-0.609,0.368-1.105,1.259-1.487h0.151
		c0.382-0.05,0.953,0.395,1.716,1.334v0.382c-0.051,0.178-0.432,0.673-1.143,1.487c-0.84,0.788-1.388,2.173-1.641,4.156
		l-0.151,0.077v1.334c0.201,0.153,0.38,0.673,0.533,1.563c0.508,0.991,1.372,1.589,2.593,1.792h1.639l0.153-0.076
		c0.661-0.102,1.283,0.293,1.868,1.183v0.229c0,0.787-1.512,1.283-4.538,1.486c-0.356,0.204-0.826,0.306-1.41,0.306l-0.152,0.152
		h-0.458v-0.152h0.077l1.716-0.725c0,0.128,0.178-0.025,0.534-0.457v-0.306c-1.983-1.145-3.076-2.707-3.279-4.69
		c-0.153,0.102-0.229-0.127-0.229-0.687h-0.077c0.153-0.279,0.203-0.991,0.153-2.135c0.153,0,0.382-0.725,0.687-2.175
		c0-0.482,0.063-0.686,0.191-0.609v-0.496h-0.191c-0.662,0.154-1.411,0.8-2.25,1.945c-0.052,0.891-0.395,2.173-1.029,3.852
		l-0.077,0.076c-0.05,0.204,0.293,0.407,1.03,0.61c0.635,0.229,0.979,0.47,1.03,0.725c0.05,0.152,0.1,0.203,0.151,0.152v0.229
		c-0.203,0.51-0.33,0.713-0.381,0.609H24.77l-1.792-0.533l-0.152-0.152H22.52c-0.253,0-0.699,0.572-1.334,1.717l-1.335,1.029
		l-1.067,0.076h0.076c0.864-0.382,1.792-1.5,2.784-3.355c0.152-0.483-0.026-0.878-0.534-1.183v-0.076l0.151-0.077l0.726,0.077
		c0.66-0.687,0.915-1.397,0.762-2.136l0.153-0.076v-0.458l-0.229-0.152H22.52l-0.381,0.152h-0.42
		c-0.56-0.253-0.813-0.432-0.763-0.533l-0.151-0.076v-0.229c0.203,0.254,0.978-0.115,2.326-1.107c0-0.736,0.075-1.004,0.229-0.8
		v-2.479c-0.153,0.153-0.204-0.088-0.153-0.725c-0.102-0.508-0.305-0.813-0.609-0.915h-0.382l-0.419,0.229h-0.382v-0.153
		c0.534-0.787,0.878-1.105,1.029-0.954L22.901,40.636z M21.644,61.914c-0.255,0.203-0.61,0.381-1.067,0.534l-0.078,0.152v0.534
		h0.383c0.354-0.203,0.687-0.534,0.991-0.991v-0.229H21.644z"/>
</g>
</svg>
